# xmcd
#
# Track frame offsets: 
#        150
#        24995
#        42145
#        68400
#        110805
#        137950
#        167825
#        194030
#        218935
#        261965
#
# Disc length: 3895 seconds
#
# Revision: 1
# Processed by: cddbd v1.5.2PL0 Copyright (c) Steve Scherf et al.
# Submitted via: ExactAudioCopy v1.1
#
DISCID=960f350a
DTITLE=Tsuyoshi Yamamoto Trio - Autumn In Seattle
DYEAR=2003
DGENRE=Jazz
TTITLE0=The Way We Were
TTITLE1=Raindorops Keep Falling On My Head
TTITLE2=Autumn In Seattle
TTITLE3=Misty
TTITLE4=Love Is A Many Splendored Thing
TTITLE5=Theme From Spartacus
TTITLE6=No Problem
TTITLE7=As Time Goes By
TTITLE8=Sound Of Music Medley
TTITLE9=A Time For Us
EXTD=YEAR: 2003
EXTT0=
EXTT1=
EXTT2=
EXTT3=
EXTT4=
EXTT5=
EXTT6=
EXTT7=
EXTT8=
EXTT9=
PLAYORDER=
